<svg width="615" height="111" viewBox="0 0 615 111" fill="none" xmlns="http://www.w3.org/2000/svg">
<g clip-path="url(#clip0_1_363)">
<path d="M615 0.00991058H0V110.8H615V0.00991058Z" fill="#FF267E"/>
<path d="M198.989 53.3533H162.313V42.5776H206.634V27.6985H141.069V83.1115H162.313V68.2324H198.989V53.3533Z" fill="#000055"/>
<path d="M315.459 64.5929L296.011 27.6985H271.631L303.199 83.1115H327.403L358.97 27.6985H334.907L315.459 64.5929Z" fill="#000055"/>
<path d="M427.082 54.959C432.613 52.2472 435.22 47.9298 435.22 43.0414C435.22 33.9427 427.646 27.6985 412.707 27.6985H364.687V83.0758H413.8C429.83 83.0758 436.911 76.6532 436.911 67.4118C436.911 62.238 433.811 57.528 427.047 54.959M385.368 41.0076H409.079C411.827 41.0076 413.764 42.756 413.764 45.1823C413.764 47.6086 411.827 49.3927 409.079 49.3927H385.368V41.0076ZM410.805 69.8024H385.368V61.4173H410.805C413.553 61.4173 415.491 63.1657 415.491 65.6277C415.491 68.0897 413.553 69.8381 410.805 69.8381" fill="#000055"/>
<path d="M468.292 61.4173H504.862V49.3927H468.292V42.5776H508.738V27.6985H447.012V83.1115H509.689V68.2324H468.292V61.4173Z" fill="#000055"/>
<path d="M518.465 27.6985V42.5776H542.317V83.1115H563.808V42.5776H587.66V27.6985H518.465Z" fill="#000055"/>
<path d="M231.363 27.6985L199.796 83.0758H222.379L226.642 74.9048H260.394L264.657 83.0758H288.191L256.624 27.6985H231.398H231.363ZM234.182 60.5253L243.518 42.6846L252.854 60.5253H234.182Z" fill="#000055"/>
<path d="M27.5186 49.4326L46.3674 83.1157H70.5361L51.6873 49.4326H27.5186Z" fill="#000055"/>
<path d="M89.4182 49.4326L70.5342 83.1157H94.7382L113.587 49.4326H89.4182Z" fill="#000055"/>
<path d="M70.5334 15.8172L51.6846 49.429H89.4174L70.5334 15.8172Z" fill="#000055"/>
</g>
<defs>
<clipPath id="clip0_1_363">
<rect width="615" height="110.79" fill="white"/>
</clipPath>
</defs>
</svg>
